<svg xmlns="http://www.w3.org/2000/svg" xmlns:xlink="http://www.w3.org/1999/xlink" width="6912" zoomAndPan="magnify" viewBox="0 0 5184 2592.000001" height="3456" preserveAspectRatio="xMidYMid meet" version="1.0"><defs><g/></defs><g fill="#ffffff" fill-opacity="1"><g transform="translate(100.856982, 1640.727731)"><g><path d="M 11.15625 0 L 148.453125 -595.5 L 60.921875 -595.5 L 93.53125 -737.09375 L 416.171875 -737.09375 L 383.5625 -595.5 L 296.03125 -595.5 L 158.75 0 Z M 11.15625 0 "/></g></g></g><g fill="#ffffff" fill-opacity="1"><g transform="translate(440.653781, 1640.727731)"><g><path d="M -58.34375 0 L 111.546875 -737.09375 L 254 -737.09375 L 84.09375 0 Z M -58.34375 0 "/></g></g></g><g fill="#ffffff" fill-opacity="1"><g transform="translate(635.436148, 1640.727731)"><g><path d="M -51.484375 0 L 118.421875 -737.09375 L 343.234375 -737.09375 L 301.1875 -287.453125 L 466.796875 -737.09375 L 693.328125 -737.09375 L 523.421875 0 L 388.703125 0 L 511.421875 -531.15625 L 303.765625 0 L 171.609375 0 L 204.21875 -531.15625 L 81.515625 0 Z M -51.484375 0 "/></g></g></g><g fill="#ffffff" fill-opacity="1"><g transform="translate(1275.558151, 1640.727731)"><g><path d="M -51.484375 0 L 118.421875 -737.09375 L 413.59375 -737.09375 L 380.984375 -594.640625 L 235.96875 -594.640625 L 202.5 -451.34375 L 341.515625 -451.34375 L 309.765625 -312.34375 L 170.765625 -312.34375 L 131.28125 -143.296875 L 285.734375 -143.296875 L 253.140625 0 Z M -51.484375 0 "/></g></g></g><g fill="#ffffff" fill-opacity="1"><g transform="translate(1629.083916, 1640.727731)"><g/></g></g><g fill="#ffffff" fill-opacity="1"><g transform="translate(1829.872777, 1640.727731)"><g><path d="M 13.734375 -213.65625 L 36.046875 -310.625 L 252.28125 -310.625 L 229.96875 -213.65625 Z M 13.734375 -213.65625 "/></g></g></g><g fill="#ffffff" fill-opacity="1"><g transform="translate(2096.733189, 1640.727731)"><g/></g></g><g fill="#ffffff" fill-opacity="1"><g transform="translate(2297.52205, 1640.727731)"><g><path d="M 118.421875 6.859375 C 64.640625 6.859375 25.453125 -10.015625 0.859375 -43.765625 C -23.734375 -77.515625 -29.164062 -123.847656 -15.4375 -182.765625 L 62.640625 -522.5625 C 79.804688 -595.789062 107.265625 -650.992188 145.015625 -688.171875 C 182.773438 -725.359375 232.832031 -743.953125 295.1875 -743.953125 C 349.53125 -743.953125 389.859375 -729.078125 416.171875 -699.328125 C 442.484375 -669.585938 449.0625 -626.6875 435.90625 -570.625 L 406.734375 -443.625 L 260 -443.625 L 285.734375 -552.609375 C 290.316406 -573.765625 291.035156 -588.347656 287.890625 -596.359375 C 284.742188 -604.367188 276.878906 -608.375 264.296875 -608.375 C 251.128906 -608.375 240.972656 -603.796875 233.828125 -594.640625 C 226.679688 -585.492188 221.101562 -572.050781 217.09375 -554.3125 L 131.28125 -184.484375 C 127.28125 -165.035156 126.992188 -150.878906 130.421875 -142.015625 C 133.859375 -133.148438 141.296875 -128.71875 152.734375 -128.71875 C 175.617188 -128.71875 191.351562 -147.304688 199.9375 -184.484375 L 230.828125 -317.484375 L 379.265625 -317.484375 L 347.515625 -178.484375 C 318.921875 -54.921875 242.554688 6.859375 118.421875 6.859375 Z M 118.421875 6.859375 "/></g></g></g><g fill="#ffffff" fill-opacity="1"><g transform="translate(2704.24836, 1640.727731)"><g><path d="M -51.484375 0 L 118.421875 -737.09375 L 265.140625 -737.09375 L 204.21875 -473.65625 L 273.734375 -473.65625 L 334.65625 -737.09375 L 481.390625 -737.09375 L 311.484375 0 L 164.75 0 L 241.984375 -334.65625 L 172.46875 -334.65625 L 95.25 0 Z M -51.484375 0 "/></g></g></g><g fill="#ffffff" fill-opacity="1"><g transform="translate(3132.426533, 1640.727731)"><g><path d="M -51.484375 0 L 118.421875 -737.09375 L 413.59375 -737.09375 L 380.984375 -594.640625 L 235.96875 -594.640625 L 202.5 -451.34375 L 341.515625 -451.34375 L 309.765625 -312.34375 L 170.765625 -312.34375 L 131.28125 -143.296875 L 285.734375 -143.296875 L 253.140625 0 Z M -51.484375 0 "/></g></g></g><g fill="#ffffff" fill-opacity="1"><g transform="translate(3485.952477, 1640.727731)"><g><path d="M 118.421875 6.859375 C 64.640625 6.859375 25.453125 -10.015625 0.859375 -43.765625 C -23.734375 -77.515625 -29.164062 -123.847656 -15.4375 -182.765625 L 62.640625 -522.5625 C 79.804688 -595.789062 107.265625 -650.992188 145.015625 -688.171875 C 182.773438 -725.359375 232.832031 -743.953125 295.1875 -743.953125 C 349.53125 -743.953125 389.859375 -729.078125 416.171875 -699.328125 C 442.484375 -669.585938 449.0625 -626.6875 435.90625 -570.625 L 406.734375 -443.625 L 260 -443.625 L 285.734375 -552.609375 C 290.316406 -573.765625 291.035156 -588.347656 287.890625 -596.359375 C 284.742188 -604.367188 276.878906 -608.375 264.296875 -608.375 C 251.128906 -608.375 240.972656 -603.796875 233.828125 -594.640625 C 226.679688 -585.492188 221.101562 -572.050781 217.09375 -554.3125 L 131.28125 -184.484375 C 127.28125 -165.035156 126.992188 -150.878906 130.421875 -142.015625 C 133.859375 -133.148438 141.296875 -128.71875 152.734375 -128.71875 C 175.617188 -128.71875 191.351562 -147.304688 199.9375 -184.484375 L 230.828125 -317.484375 L 379.265625 -317.484375 L 347.515625 -178.484375 C 318.921875 -54.921875 242.554688 6.859375 118.421875 6.859375 Z M 118.421875 6.859375 "/></g></g></g><g fill="#ffffff" fill-opacity="1"><g transform="translate(3892.678967, 1640.727731)"><g><path d="M -51.484375 0 L 118.421875 -737.09375 L 264.296875 -737.09375 L 196.5 -441.90625 L 332.9375 -737.09375 L 481.390625 -737.09375 L 320.921875 -399.859375 L 328.640625 0 L 175.90625 0 L 177.625 -356.953125 L 95.25 0 Z M -51.484375 0 "/></g></g></g><g fill="#ffffff" fill-opacity="1"><g transform="translate(4297.689323, 1640.727731)"><g><path d="M -51.484375 0 L 118.421875 -737.09375 L 413.59375 -737.09375 L 380.984375 -594.640625 L 235.96875 -594.640625 L 202.5 -451.34375 L 341.515625 -451.34375 L 309.765625 -312.34375 L 170.765625 -312.34375 L 131.28125 -143.296875 L 285.734375 -143.296875 L 253.140625 0 Z M -51.484375 0 "/></g></g></g><g fill="#ffffff" fill-opacity="1"><g transform="translate(4651.215268, 1640.727731)"><g><path d="M 118.421875 -737.09375 L 344.953125 -737.09375 C 380.984375 -737.09375 407.007812 -728.9375 423.03125 -712.625 C 439.050781 -696.320312 447.0625 -673.441406 447.0625 -643.984375 C 447.0625 -614.523438 441.910156 -576.914062 431.609375 -531.15625 C 421.890625 -489.394531 408.875 -456.785156 392.5625 -433.328125 C 376.257812 -409.867188 353.523438 -393.566406 324.359375 -384.421875 C 345.523438 -379.835938 359.109375 -368.679688 365.109375 -350.953125 C 371.117188 -333.222656 370.691406 -309.195312 363.828125 -278.875 L 297.75 0 L 153.59375 0 L 219.671875 -288.3125 C 224.816406 -308.90625 223.957031 -322.0625 217.09375 -327.78125 C 210.226562 -333.5 196.210938 -336.359375 175.046875 -336.359375 L 97.828125 0 L -51.484375 0 Z M 241.125 -464.21875 C 261.71875 -464.21875 277.160156 -486.53125 287.453125 -531.15625 C 292.035156 -550.601562 294.46875 -565.1875 294.75 -574.90625 C 295.039062 -584.632812 293.328125 -591.359375 289.609375 -595.078125 C 285.890625 -598.796875 279.738281 -600.65625 271.15625 -600.65625 L 236.828125 -600.65625 L 205.9375 -464.21875 Z M 241.125 -464.21875 "/></g></g></g></svg>
